<?xml version="1.0" encoding="UTF-8"?>
<svg width="26px" height="29px" viewBox="0 0 26 29" version="1.1" xmlns="http://www.w3.org/2000/svg" xmlns:xlink="http://www.w3.org/1999/xlink">
    <!-- Generator: Sketch 52.6 (67491) - http://www.bohemiancoding.com/sketch -->
    <title>Group</title>
    <desc>Created with Sketch.</desc>
    <g id="Symbols" stroke="none" stroke-width="1" fill="none" fill-rule="evenodd">
        <g id="header/ep/desktop" transform="translate(0.000000, -50.000000)" fill-rule="nonzero">
            <g id="header">
                <g id="lg_losango" transform="translate(0.000000, 49.000000)">
                    <g id="Group">
                        <path d="M24,8.33 C23.8046224,7.25204792 23.1756787,6.30140306 22.26,5.7 L18.26,3.4 C17.5006283,3.00595534 16.6349238,2.86576029 15.79,3 C14.9371321,3.16560469 14.1613687,3.60438488 13.58,4.25 C13.32,4.52 12.58,5.41 12.58,5.41 L20.39,15 C20.39,15 22.61,12.33 23.32,11.41 C23.9589709,10.5198124 24.204774,9.40646894 24,8.33" id="Fill-717" fill="#001E40"></path>
                        <path d="M1.48,21.74 C1.68499501,22.8247319 2.32916958,23.7765179 3.26,24.37 L7.26,26.66 C8.02916529,27.0574024 8.90869832,27.1875733 9.76,27.03 C10.611587,26.8671064 11.3871912,26.4319257 11.97,25.79 C12.23,25.51 12.97,24.62 12.97,24.62 L5.13,15 C5.13,15 2.91,17.7 2.2,18.63 C1.53881177,19.5218293 1.27801284,20.6483358 1.48,21.74" id="Fill-719" fill="#7A1827"></path>
                        <path d="M9,27 C9.24124472,26.999908 9.48206756,26.9798394 9.72,26.94 C10.6449255,26.7613797 11.4771348,26.2620542 12.07,25.53 L23.27,11.67 C23.9674519,10.7942446 24.2659696,9.66628018 24.0930214,8.56017191 C23.9200732,7.45406364 23.2914897,6.47105833 22.36,5.85 L23.26,6.38 C24.6882953,7.20461291 25.5658321,8.73076386 25.56,10.38 L25.56,19.79 C25.5658321,21.4392361 24.6882953,22.9653871 23.26,23.79 L15.15,28.5 C13.725339,29.3297357 11.964661,29.3297357 10.54,28.5 L7.16,26.54 C7.72758625,26.8386269 8.35865829,26.9963949 9,27" id="Fill-721" fill="#003E68"></path>
                        <path d="M2.3,6.36 L10.41,1.62 C11.8273316,0.78962028 13.5826684,0.78962028 15,1.62 L18.3,3.54 C16.6428402,2.70887966 14.6298269,3.15575191 13.48,4.61 L2.29,18.54 C1.57881327,19.4178176 1.2720007,20.5554446 1.44536287,21.6718208 C1.61872505,22.788197 2.25609311,23.7792021 3.2,24.4 L2.3,23.87 C0.88218577,23.0349697 0.00844376529,21.5154184 -3.64153152e-13,19.87 L-3.64153152e-13,10.38 C0.00239502441,8.73295594 0.877737904,7.2106205 2.3,6.38" id="Fill-723" fill="#D11F3E"></path>
                    </g>
                </g>
            </g>
        </g>
    </g>
</svg>